<svg width="130" height="44" viewBox="0 0 130 44" fill="none" xmlns="http://www.w3.org/2000/svg">
<path d="M27.5 33C33.5751 26.9249 33.5751 17.0751 27.5 11C21.4249 4.92487 11.5751 4.92487 5.5 11C-0.575132 17.0751 -0.575132 26.9249 5.5 33C11.5751 39.0751 21.4249 39.0751 27.5 33Z" fill="black"/>
<path d="M26.8125 32.3128C32.5081 26.6172 32.5081 17.3828 26.8125 11.6872C21.1169 5.99157 11.8825 5.99157 6.18684 11.6872C0.491229 17.3828 0.491229 26.6172 6.18684 32.3128C11.8825 38.0084 21.1169 38.0084 26.8125 32.3128Z" fill="black"/>
<path d="M16.5004 32.8669C23.6182 32.8669 29.3884 27.0542 29.3884 19.8839C29.3884 12.7136 23.6182 6.90088 16.5004 6.90088C9.38249 6.90088 3.6123 12.7136 3.6123 19.8839C3.6123 27.0542 9.38249 32.8669 16.5004 32.8669Z" fill="#DCE35F"/>
<path d="M16.5015 33.2C9.13017 33.2 3.12891 27.1568 3.12891 19.7284C3.12891 12.3 9.12776 6.25586 16.5015 6.25586C23.8753 6.25586 29.875 12.2992 29.875 19.7284C29.875 27.1576 23.8761 33.2 16.5015 33.2ZM16.5015 7.23254C9.66219 7.23254 4.0984 12.8383 4.0984 19.7284C4.0984 26.6184 9.66219 32.2234 16.5015 32.2234C23.3409 32.2234 28.9055 26.6176 28.9055 19.7284C28.9055 12.8391 23.3409 7.23254 16.5015 7.23254Z" fill="black"/>
<path d="M14.3427 36.6069C20.2506 36.6069 25.04 31.782 25.04 25.8303C25.04 19.8786 20.2506 15.0537 14.3427 15.0537C8.43482 15.0537 3.64551 19.8786 3.64551 25.8303C3.64551 31.782 8.43482 36.6069 14.3427 36.6069Z" fill="#A6DBD9"/>
<path d="M14.3643 37.0988C13.5693 37.0991 12.7765 37.015 11.999 36.8478C9.09798 36.2225 6.56248 34.4615 4.95065 31.9525C3.33882 29.4434 2.78279 26.3919 3.40496 23.4697C4.70056 17.3949 10.6561 13.5141 16.6846 14.816C22.7132 16.118 26.5679 22.1169 25.2787 28.1908C24.1743 33.3774 19.6298 37.0865 14.3643 37.0988ZM14.3394 15.5384C8.978 15.5396 4.53007 19.7168 4.15341 25.1046C3.77675 30.4924 7.5996 35.2565 12.908 36.0146C18.2163 36.7727 23.2029 33.2668 24.3276 27.9858C24.9739 24.9471 24.2225 21.7769 22.2832 19.3601C20.3438 16.9433 17.4243 15.5387 14.3394 15.5384Z" fill="black"/>
<path d="M23.6864 32.9713C27.3522 32.9713 30.3239 29.9777 30.3239 26.285C30.3239 22.5922 27.3522 19.5986 23.6864 19.5986C20.0206 19.5986 17.0488 22.5922 17.0488 26.285C17.0488 29.9777 20.0206 32.9713 23.6864 32.9713Z" fill="#F5DE3E"/>
<path d="M23.6857 33.4575C20.8048 33.4578 18.2073 31.7097 17.1049 29.0283C16.0024 26.3469 16.612 23.2606 18.6493 21.2086C20.6867 19.1566 23.7505 18.5431 26.4119 19.6544C29.0733 20.7657 30.8081 23.3827 30.8071 26.285C30.8009 30.2443 27.6159 33.4522 23.6857 33.4575ZM23.6857 20.0851C20.2877 20.0851 17.533 22.8602 17.533 26.2834C17.533 29.7066 20.2877 32.4817 23.6857 32.4817C27.0837 32.4817 29.8384 29.7066 29.8384 26.2834C29.834 22.8623 27.0816 20.0903 23.6857 20.0867V20.0851Z" fill="black"/>
<path d="M43.1937 23.1017H40.9578L40.0501 27.5324H37.5L39.9798 15.5713H44.7826C46.7386 15.5713 48.0661 16.9846 48.0661 18.602C48.0661 21.8117 45.5863 23.1017 43.1937 23.1017ZM43.5079 17.3277H42.1453L41.3042 21.3445H42.1774C43.8887 21.3445 45.4609 20.952 45.4609 18.8517C45.4639 17.9024 44.5035 17.3277 43.5079 17.3277ZM56.5538 24.3399C56.2395 25.7924 56.1524 26.8524 56.1348 27.5324H53.6726C53.707 27.0832 53.8645 26.2408 54.0044 25.4124C53.3751 26.5784 52.3451 27.7263 50.6338 27.7263C48.8697 27.7263 47.9789 26.525 47.9789 24.8565C47.9789 20.8224 51.4895 18.3295 54.8249 18.3295C55.8381 18.3295 57.1479 18.5086 57.7589 18.7417L56.5538 24.3399ZM54.3707 20.0004C52.3627 20.0004 50.529 22.1886 50.529 24.5912C50.529 25.3983 50.8081 26.0618 51.7166 26.0618C52.94 26.0618 54.1092 24.3399 54.5978 22.1886L55.0696 20.1079C54.845 20.0286 54.6081 19.9921 54.3707 20.0004ZM66.2466 26.3303C65.4606 29.953 64.1683 31.6026 60.2915 31.6026C59.2589 31.6026 58.2331 31.4329 57.2527 31.1001L57.7245 29.3249C58.5656 29.7912 59.4534 29.9349 60.2387 29.9349C62.4218 29.9349 63.2606 28.7517 63.6621 27.066L63.9381 25.882C63.097 27.0299 62.2268 27.5308 60.777 27.5308C58.9785 27.5308 58.1053 26.3829 58.1053 24.8613C58.1053 20.8091 61.6992 18.3523 65.0561 18.3523C66.0165 18.3523 67.2216 18.5313 67.8853 18.7449L66.2466 26.3303ZM64.5353 20.0184C62.5266 20.0184 60.6585 22.1383 60.6585 24.6445C60.6585 25.4517 60.9376 26.0437 61.7933 26.0437C63.435 26.0437 64.3434 23.8916 64.7097 22.2954L65.2166 20.126C64.996 20.0554 64.7664 20.0192 64.5353 20.0184ZM75.5556 21.3453C76.8127 21.6319 77.6202 22.4571 77.6202 23.7126C77.6202 26.7967 74.7558 27.5324 72.344 27.5324H68.0283L70.5081 15.5713H75.1725C76.7271 15.5713 78.404 16.3062 78.404 18.0838C78.4024 19.8386 77.2493 21.0226 75.5556 21.3453ZM72.6912 22.1705H71.5909L70.8055 25.9393H72.0099C73.4773 25.9393 74.9967 25.4729 74.9967 23.6262C74.9967 22.3676 73.634 22.1705 72.6912 22.1705ZM74.0538 17.1675H72.601L71.9051 20.5892H73.1454C74.5073 20.5892 75.8347 20.0514 75.8347 18.4552C75.8347 17.4541 74.8567 17.1675 74.0538 17.1675ZM87.2396 24.3399C86.9246 25.7924 86.8374 26.8524 86.8198 27.5324H84.3546C84.3897 27.0832 84.5465 26.2408 84.6864 25.4124C84.0579 26.5784 83.0271 27.7263 81.3158 27.7263C79.5517 27.7263 78.6617 26.525 78.6617 24.8565C78.6617 20.8224 82.1715 18.3295 85.5077 18.3295C86.5201 18.3295 87.8299 18.5086 88.4417 18.7417L87.2396 24.3399ZM85.0565 20.0004C83.0478 20.0004 81.2141 22.1886 81.2141 24.5912C81.2141 25.3983 81.494 26.0618 82.4016 26.0618C83.6251 26.0618 84.7942 24.3399 85.2836 22.1886L85.7547 20.1079C85.5303 20.0286 85.2937 19.9921 85.0565 20.0004ZM97.7529 21.5785L96.5295 27.5324H94.12L95.2196 22.1148C95.29 21.7921 95.3596 21.4867 95.3596 21.1828C95.3596 20.5013 95.0453 20.0168 94.2072 20.0168C92.8973 20.0168 92.2688 21.2181 92.0241 22.3841L90.9589 27.5308H88.5311L89.9633 20.5366C90.1088 19.8737 90.2196 19.2033 90.2952 18.5282H92.5655L92.307 20.126C93.1482 18.9247 94.0183 18.3507 95.4681 18.3507C96.8828 18.3507 97.8608 19.0676 97.8608 20.5562C97.8575 20.8998 97.8214 21.2422 97.7529 21.5785Z" fill="white"/>
<path d="M104.075 22.6185L106.836 27.5326H104.075L101.7 22.8157L100.757 27.5326H98.3296L100.984 14.6025H103.395L101.84 22.2417L105.594 18.5297H108.441L104.075 22.6185Z" fill="white"/>
</svg>
